:SAMPLES-PER-SECOND 30
:FULLY-SPECIFIED
:DEGREES
220
root  -40.6526 34.5974 23.5924 -169.897 53.0876 -177.211
RightUpLeg  -3.02297 -20.0381 -0.332799
RightLeg  8.11598 -9.12959 -0.701601
RightFoot  2.14602 0.0161786 -0.141662
RightToes  -28.2008 -0.13015 -0.238714
Spine  -0.623856 1.84208 -0.995712
Spine1  -1.2866 3.72279 -1.29804
HEad  -65.982 -9.0413 -0.997054
LeftShoulder1  -1.94126e-019 -3.10601e-018 -2.51263e-017
LeftArm  -37.5398 37.2783 -69.9658
LeftForeArm  23.6763 -66.053 -23.8605
LeftHand  -0.250946 1.31188 7.04585
RightShoulder  -4.96962e-017 0 -2.36833e-017
RightArm  -20.007 -23.5642 75.3287
RightForeArm  50.9477 33.0981 4.48637
RightHand  -0.50893 -0.149322 -11.3054
LeftUpLeg  -14.6635 2.42813 9.86934
LeftLeg  24.8736 11.2214 4.31109
LeftFoot  5.99606 -0.0673213 1.42699
LeftToes  -34.4303 2.32378e-006 -5.43956e-008
221
root  -40.6745 34.6192 23.6897 -169.841 53.9806 -177.156
RightUpLeg  -3.63578 -18.8629 -0.192093
RightLeg  8.84179 -9.34268 -0.836472
RightFoot  1.96676 0.0142695 -0.120657
RightToes  -27.7463 -0.128714 -0.235878
Spine  -0.575675 1.87737 -0.885035
Spine1  -1.18345 3.80316 -1.09027
HEad  -65.2913 -7.54514 -0.824586
LeftShoulder1  -1.94126e-019 -3.10601e-018 -2.51263e-017
LeftArm  -39.6094 36.1388 -66.9323
LeftForeArm  27.3543 -70.0198 -29.9592
LeftHand  -0.296218 -0.155192 6.26878
RightShoulder  -4.96962e-017 0 -2.36833e-017
RightArm  -20.9947 -21.99 75.2343
RightForeArm  50.5652 33.7754 4.6651
RightHand  -0.472508 -0.759596 -11.8201
LeftUpLeg  -13.9564 2.49978 9.89042
LeftLeg  23.7923 11.9793 4.34265
LeftFoot  6.30895 -0.0789334 1.57707
LeftToes  -34.4253 2.32378e-006 -5.43956e-008
222
root  -40.706 34.651 23.7411 -170.139 55.0137 -177.489
RightUpLeg  -4.21173 -17.727 -0.378286
RightLeg  9.59211 -9.48754 -0.97416
RightFoot  1.83522 0.0128091 -0.10478
RightToes  -27.441 -0.127598 -0.233793
Spine  -0.553998 1.86067 -0.793607
Spine1  -1.13219 3.77847 -0.921759
HEad  -64.7391 -6.07605 -1.19695
LeftShoulder1  -1.94126e-019 -3.10601e-018 -2.51263e-017
LeftArm  -41.2404 34.755 -63.5808
LeftForeArm  30.5968 -73.2532 -38.0557
LeftHand  -0.143073 0.244911 3.23061
RightShoulder  -4.96962e-017 0 -2.36833e-017
RightArm  -21.6928 -21.1893 75.2354
RightForeArm  49.9508 35.3805 5.08298
RightHand  -0.455713 -1.09074 -12.2423
LeftUpLeg  -13.0218 2.11359 9.58137
LeftLeg  22.5084 13.2753 4.47345
LeftFoot  6.70546 -0.0973178 1.82264
LeftToes  -34.0805 2.32378e-006 -5.43956e-008
223
root  -40.7424 34.6697 23.7743 -170.422 55.6842 -177.798
RightUpLeg  -4.64637 -17.1417 -0.568802
RightLeg  10.1836 -9.42299 -1.06559
RightFoot  1.6761 0.010797 -0.0796248
RightToes  -27.1926 -0.126698 -0.232537
Spine  -0.549114 1.71477 -0.663799
Spine1  -1.11232 3.50637 -0.696705
HEad  -64.7796 -4.61663 -1.58031
LeftShoulder1  -1.94126e-019 -3.10601e-018 -2.51263e-017
LeftArm  -41.7661 32.1632 -59.6692
LeftForeArm  36.6735 -75.1016 -44.2071
LeftHand  -0.243829 -1.34955 4.34792
RightShoulder  -4.96962e-017 0 -2.36833e-017
RightArm  -21.7674 -20.9601 75.2383
RightForeArm  49.4734 37.231 5.57098
RightHand  -0.459274 -1.07287 -12.2893
LeftUpLeg  -12.3693 1.71107 9.29526
LeftLeg  21.5565 14.3322 4.5614
LeftFoot  7.02321 -0.114975 2.03499
LeftToes  -33.8819 2.32378e-006 -5.43956e-008
224
root  -40.7899 34.6712 23.8006 -170.689 55.7253 -178.149
RightUpLeg  -4.91839 -17.1975 -0.755382
RightLeg  10.5067 -9.32166 -1.10732
RightFoot  1.54964 0.00932878 -0.0607393
RightToes  -27.4956 -0.125988 -0.231657
Spine  -0.556028 1.49767 -0.439034
Spine1  -1.10282 3.09952 -0.29372
HEad  -65.1916 -3.33578 -2.17459
LeftShoulder1  -1.94126e-019 -3.10601e-018 -2.51263e-017
LeftArm  -41.2293 27.7185 -55.4341
LeftForeArm  37.9009 -75.0153 -43.4167
LeftHand  -0.289187 -1.71803 4.89551
RightShoulder  -4.96962e-017 0 -2.36833e-017
RightArm  -21.4461 -21.2056 74.9898
RightForeArm  49.6634 38.8417 5.9847
RightHand  -0.486095 -0.949027 -12.66
LeftUpLeg  -12.3282 1.2583 9.07761
LeftLeg  21.305 14.7358 4.61657
LeftFoot  7.25627 -0.126003 2.15087
LeftToes  -33.9947 2.32378e-006 -5.43956e-008
225
root  -40.8624 34.6707 23.8395 -171.107 55.5806 -178.535
RightUpLeg  -5.10639 -17.3951 -0.969979
RightLeg  10.8833 -9.27505 -1.16347
RightFoot  1.28814 0.00650938 -0.0209321
RightToes  -27.2258 -0.125444 -0.231096
Spine  -0.535912 1.33629 -0.17339
Spine1  -1.02939 2.81528 0.176009
HEad  -65.2071 -2.3721 -2.48786
LeftShoulder1  -1.94126e-019 -3.10601e-018 -2.51263e-017
LeftArm  -40.2434 21.425 -51.3605
LeftForeArm  29.8117 -72.1516 -34.8239
LeftHand  -0.315423 -1.18069 5.71528
RightShoulder  -4.96962e-017 0 -2.36833e-017
RightArm  -21.4029 -21.4509 74.6372
RightForeArm  48.8667 39.5747 6.22627
RightHand  -0.496297 -0.624668 -12.0778
LeftUpLeg  -12.5622 1.34599 8.89944
LeftLeg  21.5704 14.3662 4.57575
LeftFoot  7.46389 -0.130206 2.15756
LeftToes  -34.1975 2.32378e-006 -5.43956e-008
226
root  -40.954 34.6694 23.8794 -171.59 55.2589 -178.847
RightUpLeg  -5.18615 -17.5567 -1.17789
RightLeg  11.2976 -9.40632 -1.24865
RightFoot  1.14401 0.00520628 -0.00107227
RightToes  -27.3871 -0.125039 -0.230798
Spine  -0.479412 1.13115 0.0462083
Spine1  -0.883553 2.444 0.570015
HEad  -65.3638 -1.50626 -2.22169
LeftShoulder1  -1.94126e-019 -3.10601e-018 -2.51263e-017
LeftArm  -39.4534 15.5559 -48.2867
LeftForeArm  24.8186 -69.9972 -30.4872
LeftHand  -0.266051 0.716748 6.58836
RightShoulder  -4.96962e-017 0 -2.36833e-017
RightArm  -21.1077 -21.2146 74.428
RightForeArm  48.9314 38.2364 5.86079
RightHand  -0.505762 -0.540069 -12.1016
LeftUpLeg  -12.9824 1.60627 8.77011
LeftLeg  22.2432 13.5811 4.50527
LeftFoot  7.74395 -0.132891 2.12484
LeftToes  -34.8854 2.32378e-006 -5.43956e-008
227
root  -41.0392 34.668 23.9105 -171.988 55.1681 -179.091
RightUpLeg  -5.34935 -17.7163 -1.37327
RightLeg  11.788 -9.33895 -1.32091
RightFoot  0.945534 0.00309187 0.0322119
RightToes  -27.2612 -0.124748 -0.230707
Spine  -0.424236 0.869492 0.258219
Spine1  -0.741119 1.95174 0.961366
HEad  -65.7718 -0.63329 -1.74895
LeftShoulder1  -1.94126e-019 -3.10601e-018 -2.51263e-017
LeftArm  -38.8813 11.8901 -46.4017
LeftForeArm  29.1694 -71.2654 -32.6018
LeftHand  -0.215007 0.978384 5.59183
RightShoulder  -4.96962e-017 0 -2.36833e-017
RightArm  -20.5569 -20.4967 74.3008
RightForeArm  50.2983 35.2958 5.04387
RightHand  -0.537056 -0.487005 -12.7152
LeftUpLeg  -13.3784 2.20272 8.64191
LeftLeg  22.9607 12.7975 4.42709
LeftFoot  7.93267 -0.132267 2.0642
LeftToes  -35.3465 2.32378e-006 -5.43956e-008
228
root  -41.1075 34.6767 23.9262 -172.208 55.6552 -179.287
RightUpLeg  -5.63889 -17.5667 -1.5446
RightLeg  12.1126 -9.04667 -1.33211
RightFoot  0.946743 0.00325123 0.0349445
RightToes  -27.2037 -0.124545 -0.230766
Spine  -0.418052 0.773974 0.518445
Spine1  -0.689292 1.79298 1.44973
HEad  -66.1363 0.140593 -1.54042
LeftShoulder1  -1.94126e-019 -3.10601e-018 -2.51263e-017
LeftArm  -37.2004 9.71978 -45.6743
LeftForeArm  39.5074 -74.3906 -40.1794
LeftHand  -0.289763 0.405217 6.76469
RightShoulder  -4.96962e-017 0 -2.36833e-017
RightArm  -20.8246 -19.9732 74.1036
RightForeArm  50.8933 32.242 4.29577
RightHand  -0.506464 -0.538886 -12.1155
LeftUpLeg  -13.5982 3.08763 8.47956
LeftLeg  23.46 12.3196 4.38402
LeftFoot  8.13561 -0.134195 2.04837
LeftToes  -35.7626 2.32378e-006 -5.43956e-008
229
root  -41.1558 34.6841 23.9262 -172.342 56.356 -179.458
RightUpLeg  -5.86543 -17.2948 -1.70519
RightLeg  12.1959 -8.65109 -1.28719
RightFoot  1.00261 0.00406087 0.030434
RightToes  -27.3538 -0.124406 -0.230919
Spine  -0.461667 0.876148 0.735422
Spine1  -0.728394 2.03822 1.84383
HEad  -66.5109 0.570806 -1.4581
LeftShoulder1  -1.94126e-019 -3.10601e-018 -2.51263e-017
LeftArm  -35.0026 7.59453 -45.7124
LeftForeArm  52.064 -77.1282 -51.6825
LeftHand  -0.394034 -0.442478 7.94204
RightShoulder  -4.96962e-017 0 -2.36833e-017
RightArm  -21.6565 -20.1045 74.0539
RightForeArm  51.4652 28.9172 3.53696
RightHand  -0.490489 -0.879891 -12.5859
LeftUpLeg  -13.694 3.63071 8.31835
LeftLeg  23.8399 12.3491 4.48567
LeftFoot  8.31634 -0.141352 2.10564
LeftToes  -36.2149 2.32378e-006 -5.43956e-008
230
root  -41.1904 34.6857 23.9261 -172.592 56.8737 -179.641
RightUpLeg  -5.92474 -16.9077 -1.86568
RightLeg  12.2551 -8.54637 -1.28075
RightFoot  1.03497 0.00491542 0.0274408
RightToes  -27.5407 -0.124304 -0.231109
Spine  -0.466417 0.979166 0.949565
Spine1  -0.682684 2.28758 2.23328
HEad  -66.922 0.922848 -1.4975
LeftShoulder1  -1.94126e-019 -3.10601e-018 -2.51263e-017
LeftArm  -32.7484 5.11656 -46.5808
LeftForeArm  63.5995 -78.6136 -62.5449
LeftHand  -0.431831 -0.899616 8.10187
RightShoulder  -4.96962e-017 0 -2.36833e-017
RightArm  -22.7952 -20.5522 73.9385
RightForeArm  51.3542 25.8426 2.90225
RightHand  -0.46788 -1.15724 -12.7618
LeftUpLeg  -13.7515 3.69953 8.19257
LeftLeg  24.3304 12.548 4.67699
LeftFoot  8.48341 -0.151088 2.19116
LeftToes  -36.7394 2.32378e-006 -5.43956e-008
231
root  -41.21 34.6891 23.9206 -172.989 57.1533 -179.871
RightUpLeg  -5.87629 -16.4302 -2.05643
RightLeg  12.4526 -8.74302 -1.3407
RightFoot  0.97207 0.00510401 0.0362317
RightToes  -27.3862 -0.124213 -0.231279
Spine  -0.488025 0.979103 1.14027
Spine1  -0.671571 2.3291 2.58445
HEad  -66.8959 1.18982 -1.76445
LeftShoulder1  -1.94126e-019 -3.10601e-018 -2.51263e-017
LeftArm  -30.0422 2.58693 -47.9082
LeftForeArm  70.2781 -79.1319 -67.3133
LeftHand  -0.432533 -1.11199 7.86691
RightShoulder  -4.96962e-017 0 -2.36833e-017
RightArm  -24.4628 -20.8963 73.8936
RightForeArm  51.0261 22.477 2.24948
RightHand  -0.450947 -1.20359 -12.4283
LeftUpLeg  -13.6272 3.67451 8.05439
LeftLeg  24.5789 12.689 4.79044
LeftFoot  8.66379 -0.159692 2.26946
LeftToes  -37.1442 2.32378e-006 -5.43956e-008
232
root  -41.2272 34.6909 23.92 -173.596 57.3196 179.739
RightUpLeg  -5.83091 -15.8163 -2.32038
RightLeg  12.8564 -9.18716 -1.47426
RightFoot  0.811815 0.00443799 0.0596114
RightToes  -27.2265 -0.124109 -0.231375
Spine  -0.482475 0.79396 1.24938
Spine1  -0.626803 1.98548 2.78989
HEad  -67.083 1.74753 -1.72052
LeftShoulder1  -1.94126e-019 -3.10601e-018 -2.51263e-017
LeftArm  -27.5047 0.752433 -49.2564
LeftForeArm  72.6938 -79.3013 -69.5079
LeftHand  -0.466722 -1.58185 7.94262
RightShoulder  -4.96962e-017 0 -2.36833e-017
RightArm  -25.276 -21.2964 73.844
RightForeArm  51.3597 19.6327 1.72825
RightHand  -0.437892 -1.22799 -12.134
LeftUpLeg  -13.3767 3.77135 7.83699
LeftLeg  24.6447 12.6866 4.80602
LeftFoot  8.85113 -0.164633 2.32204
LeftToes  -37.3818 2.32378e-006 -5.43956e-008
233
root  -41.2173 34.6894 23.9256 -174.225 57.4332 179.415
RightUpLeg  -5.74635 -15.5446 -2.56346
RightLeg  13.4152 -9.33262 -1.59054
RightFoot  0.563892 0.00257049 0.102645
RightToes  -26.961 -0.123966 -0.231338
Spine  -0.476425 0.491428 1.32031
Spine1  -0.606498 1.38643 2.94114
HEad  -67.4869 2.3243 -1.36265
LeftShoulder1  -1.94126e-019 -3.10601e-018 -2.51263e-017
LeftArm  -25.6861 -0.0940287 -50.6042
LeftForeArm  77.4533 -79.5845 -74.8756
LeftHand  -0.468698 -2.03079 7.52583
RightShoulder  -4.96962e-017 0 -2.36833e-017
RightArm  -25.786 -21.9712 73.7608
RightForeArm  51.5154 17.7765 1.51507
RightHand  -0.380857 -1.57714 -11.4646
LeftUpLeg  -13.062 4.17983 7.71927
LeftLeg  24.7274 12.3474 4.70015
LeftFoot  8.97327 -0.163497 2.29721
LeftToes  -37.5539 2.32378e-006 -5.43956e-008
234
root  -41.1991 34.6769 23.9631 -174.608 57.8469 179.221
RightUpLeg  -5.94627 -15.1998 -2.6519
RightLeg  14.119 -9.26411 -1.69594
RightFoot  0.293205 0.000575792 0.15009
RightToes  -26.9909 -0.123758 -0.231113
Spine  -0.514572 0.218284 1.35583
Spine1  -0.679661 0.846554 3.01698
HEad  -68.0665 2.98919 -0.852258
LeftShoulder1  -1.94126e-019 -3.10601e-018 -2.51263e-017
LeftArm  -24.6035 -0.307612 -51.7312
LeftForeArm  87.6679 -79.9357 -84.0317
LeftHand  -0.467564 -2.4849 7.10696
RightShoulder  -4.96962e-017 0 -2.36833e-017
RightArm  -26.2073 -22.6883 73.7783
RightForeArm  52.1129 16.1364 1.35762
RightHand  -0.361803 -1.88018 -11.7871
LeftUpLeg  -12.8547 5.21079 7.73142
LeftLeg  24.8525 11.7266 4.49702
LeftFoot  9.02103 -0.157558 2.20362
LeftToes  -37.8565 2.32378e-006 -5.43956e-008
